<?xml version="1.0" encoding="UTF-8" standalone="no"?> <svg width="64" height="64" viewBox="0 0 64 64" fill="none" xmlns="http://www.w3.org/2000/svg">
<path d="M60.67 43.94C60.4505 43.3837 60.12 42.8778 59.6989 42.4532C59.2777 42.0286 58.7745 41.6941 58.22 41.47C57.6822 41.2423 57.1041 41.1249 56.52 41.1249C55.9359 41.1249 55.3578 41.2423 54.82 41.47L42.08 46C42.1319 45.75 42.1587 45.4954 42.16 45.24C42.16 44.1049 41.7091 43.0162 40.9064 42.2136C40.1038 41.4109 39.0151 40.96 37.88 40.96H34.58C31.6441 40.9572 28.7534 40.2362 26.16 38.86C23.2767 37.3433 20.0679 36.5505 16.81 36.55H11.81V35.18C11.7969 34.332 11.4508 33.5233 10.8465 32.9283C10.2421 32.3333 9.42806 31.9999 8.58 32H6.22C5.37289 31.9999 4.55987 32.3337 3.95714 32.9289C3.35441 33.5242 3.01052 34.333 3 35.18V55.24C3 56.094 3.33925 56.913 3.94312 57.5169C4.54698 58.1208 5.366 58.46 6.22 58.46H8.58C9.43492 58.46 10.255 58.1211 10.8604 57.5175C11.4659 56.9139 11.8074 56.0949 11.81 55.24C13.6024 55.3178 15.3741 55.6546 17.07 56.24L22.22 58.05C24.8543 58.9776 27.6271 59.4511 30.42 59.45C30.77 59.45 31.11 59.45 31.42 59.45C34.4145 59.3196 37.3598 58.6418 40.11 57.45L58.54 49.57C59.534 49.0671 60.3038 48.2104 60.698 47.1685C61.0922 46.1266 61.0822 44.9749 60.67 43.94V43.94ZM9.81 55.24C9.80736 55.5645 9.67661 55.8748 9.44623 56.1033C9.21584 56.3318 8.90449 56.46 8.58 56.46H6.22C5.89644 56.46 5.58612 56.3315 5.35733 56.1027C5.12854 55.8739 5 55.5636 5 55.24V35.18C5.01039 34.8634 5.14349 34.5633 5.37117 34.3431C5.59885 34.1229 5.90325 33.9998 6.22 34H8.58C8.90449 34 9.21584 34.1282 9.44623 34.3567C9.67661 34.5852 9.80736 34.8955 9.81 35.22V55.24Z" fill="#00bfd6"/>
<path d="M19.12 22.51H23.64C23.869 22.511 24.0914 22.4333 24.27 22.29L25.7 21.12L41.11 36.53C41.2034 36.6227 41.3142 36.696 41.4361 36.7458C41.5579 36.7956 41.6884 36.8208 41.82 36.82C42.0823 36.8189 42.3337 36.7148 42.52 36.53L58.19 20.86C59.5218 19.5243 60.4287 17.8245 60.7966 15.9745C61.1645 14.1245 60.9769 12.207 60.2574 10.4634C59.538 8.71982 58.3188 7.22801 56.7534 6.17576C55.1879 5.12352 53.3462 4.55787 51.46 4.55002V4.55002C50.204 4.54617 48.9597 4.79168 47.7993 5.27232C46.6389 5.75297 45.5854 6.45918 44.7 7.35002L41.84 10.22L39 7.35002C37.3276 5.58117 35.0428 4.51775 32.6126 4.37706C30.1823 4.23637 27.7901 5.02904 25.9247 6.59309C24.0594 8.15714 22.8617 10.3745 22.5764 12.792C22.2912 15.2096 22.9399 17.6448 24.39 19.6L23.28 20.51H19.12C18.8548 20.51 18.6004 20.6154 18.4129 20.8029C18.2254 20.9905 18.12 21.2448 18.12 21.51C18.12 21.7752 18.2254 22.0296 18.4129 22.2171C18.6004 22.4047 18.8548 22.51 19.12 22.51ZM26.86 8.76002C27.5605 8.05734 28.3927 7.49982 29.3091 7.11941C30.2254 6.739 31.2078 6.54318 32.2 6.54318C33.1922 6.54318 34.1746 6.739 35.0909 7.11941C36.0073 7.49982 36.8395 8.05734 37.54 8.76002L41.11 12.33C41.2974 12.5163 41.5508 12.6208 41.815 12.6208C42.0792 12.6208 42.3326 12.5163 42.52 12.33L46.1 8.77002C46.7979 8.06364 47.6296 7.50348 48.5464 7.1223C49.4633 6.74112 50.447 6.54657 51.44 6.55002V6.55002C52.9348 6.54948 54.3962 6.99271 55.6389 7.82353C56.8816 8.65434 57.8497 9.83536 58.4205 11.2169C58.9914 12.5985 59.1392 14.1184 58.8454 15.5841C58.5516 17.0498 57.8293 18.3953 56.77 19.45L41.77 34.45L27.25 19.84L30.76 17L35.14 24.37C35.2225 24.5074 35.3367 24.6229 35.4731 24.7068C35.6095 24.7908 35.7641 24.8408 35.9239 24.8525C36.0836 24.8643 36.2439 24.8375 36.3911 24.7744C36.5384 24.7113 36.6683 24.6138 36.77 24.49L42.29 17.83H50.06C50.3252 17.83 50.5796 17.7247 50.7671 17.5371C50.9546 17.3496 51.06 17.0952 51.06 16.83C51.06 16.5648 50.9546 16.3104 50.7671 16.1229C50.5796 15.9354 50.3252 15.83 50.06 15.83H41.82C41.6731 15.8298 41.5279 15.8619 41.3948 15.9241C41.2618 15.9864 41.144 16.0771 41.05 16.19L36.13 22.13L31.89 14.98C31.8162 14.857 31.7167 14.7513 31.5984 14.6701C31.4801 14.5889 31.3458 14.5341 31.2044 14.5094C31.0631 14.4848 30.9181 14.4908 30.7793 14.5272C30.6405 14.5635 30.5111 14.6293 30.4 14.72L25.94 18.37C25.0834 17.1228 24.6297 15.643 24.64 14.13C24.6337 13.1322 24.8268 12.1431 25.208 11.221C25.5892 10.2988 26.1509 9.4621 26.86 8.76002V8.76002Z" fill="#00bfd6"/>
</svg>
