<?xml version="1.0" encoding="UTF-8" standalone="no"?> <svg id="Layer_7" data-name="Layer 7" xmlns="http://www.w3.org/2000/svg" viewBox="0 0 64 64"><title>product, quality, seller, best seller, Best selling products</title><path fill="#00bfd6" d="M49.651,11.127c-.388-.044-1.337-.132-3.857,3.275l-.029-.033a1,1,0,1,0-1.513,1.306l.86,1a1,1,0,0,0,.757.347l.054,0a1,1,0,0,0,.769-.431,16.732,16.732,0,0,1,2.949-3.467,1,1,0,0,0,.01-1.992Z"/><path fill="#00bfd6" d="M60,24.739,55,19.745a9.6,9.6,0,1,0-15.443,0l-4.994,4.994a1,1,0,0,0,.776,1.7l3.11-.213-.213,3.11a1,1,0,0,0,1.705.776l6.492-6.492c.279.024.56.042.846.042s.566-.018.845-.042l6.492,6.492a1,1,0,0,0,1.7-.776l-.213-3.11,3.11.213a1.013,1.013,0,0,0,.979-.584A1,1,0,0,0,60,24.739ZM40.416,26.816l.109-1.592a1,1,0,0,0-1.066-1.066l-1.592.109,3.041-3.042a9.594,9.594,0,0,0,3.206,1.894ZM39.684,14.07a7.6,7.6,0,1,1,7.6,7.6A7.606,7.606,0,0,1,39.684,14.07ZM55.1,24.158a1,1,0,0,0-1.066,1.066l.109,1.592-3.7-3.7a9.6,9.6,0,0,0,3.2-1.893L56.7,24.267Z"/><path fill="#00bfd6" d="M42.4,57.527H40.02a2.428,2.428,0,0,0,.03-.78L36.628,32.508a2.449,2.449,0,0,0-2.415-2.1,1,1,0,0,0,0,2,.44.44,0,0,1,.434.378l1.628,11.528-14.458,5.47a.453.453,0,0,1-.324,0L7.508,44.324,9.136,32.787a.437.437,0,0,1,.436-.378h3.1v2.385a2.5,2.5,0,0,0,5,0V22.7a4.145,4.145,0,0,1,4.155-4.07h.113a4.154,4.154,0,0,1,4.177,4.07v7.706h-5.7a1,1,0,0,0,0,2h5.7v2.385a2.5,2.5,0,0,0,5,0V22.7a9.061,9.061,0,0,0-9.155-8.837H21.8A9.052,9.052,0,0,0,12.67,22.7v7.706h-3.1a2.451,2.451,0,0,0-2.416,2.1L3.734,56.747a2.44,2.44,0,0,0,2.416,2.78H42.4a1,1,0,0,0,0-2ZM14.67,22.7a7.045,7.045,0,0,1,7.141-6.837h.141A7.055,7.055,0,0,1,29.115,22.7V34.794a.518.518,0,0,1-1,0V22.7a6.162,6.162,0,0,0-6.169-6.07h-.129A6.153,6.153,0,0,0,15.67,22.7V34.794a.518.518,0,0,1-1,0ZM33.635,57.527H6.15a.44.44,0,0,1-.435-.5L7.22,46.358l13.545,5.288a2.453,2.453,0,0,0,1.761.009l14.035-5.31,1.508,10.681a.44.44,0,0,1-.435.5Z"/><path fill="#00bfd6" d="M46.471,57.816c-.05-.04-.1-.08-.16-.12a.546.546,0,0,0-.17-.09.6.6,0,0,0-.19-.06.856.856,0,0,0-.39,0,.636.636,0,0,0-.18.06.7.7,0,0,0-.18.09l-.15.12a1.155,1.155,0,0,0-.21.33.839.839,0,0,0-.081.38,1,1,0,1,0,1.921-.38A1.155,1.155,0,0,0,46.471,57.816Z"/><path fill="#00bfd6" d="M19.046,42.968a1,1,0,0,0,0,2h5.693a1,1,0,1,0,0-2Z"/><path fill="#00bfd6" d="M4.653,12.844A5.7,5.7,0,0,1,8.6,16.963a1.34,1.34,0,0,0,1.24.971h.048a1.337,1.337,0,0,0,1.253-.876,6.514,6.514,0,0,1,3.963-4.2,1.318,1.318,0,0,0,.876-1.289,1.362,1.362,0,0,0-1-1.267,5.309,5.309,0,0,1-3.75-3.619,1.321,1.321,0,0,0-1.32-.9,1.346,1.346,0,0,0-1.25,1.025C8.234,8.52,6.938,9.65,4.7,10.267a1.343,1.343,0,0,0-.048,2.577Zm5.358-4.025a7,7,0,0,0,2.961,2.845,8.31,8.31,0,0,0-3.037,3.22,7.36,7.36,0,0,0-3.091-3.267A6.592,6.592,0,0,0,10.011,8.819Z"/><path fill="#00bfd6" d="M52.307,39.431a5.166,5.166,0,0,1-3.647-3.522,1.289,1.289,0,0,0-1.314-.893,1.339,1.339,0,0,0-1.241,1.019c-.419,1.659-1.679,2.757-3.852,3.357a1.334,1.334,0,0,0-.05,2.562,5.544,5.544,0,0,1,3.84,4.007,1.331,1.331,0,0,0,1.234.965h.046a1.324,1.324,0,0,0,1.245-.871,6.341,6.341,0,0,1,3.858-4.085,1.311,1.311,0,0,0,.87-1.284A1.349,1.349,0,0,0,52.307,39.431Zm-4.936,4.443A7.21,7.21,0,0,0,44.4,40.735a6.465,6.465,0,0,0,3.042-2.688,6.846,6.846,0,0,0,2.843,2.734A8.1,8.1,0,0,0,47.371,43.874Z"/></svg>