<svg xmlns="http://www.w3.org/2000/svg" width="100" height="11" viewBox="0 0 100 11">
    <g fill="#EF5661" fill-rule="evenodd">
        <path d="M7.844 8.8c.19.186.372.365.545.538.173.172.358.361.554.567-.183.18-.361.358-.535.538-.173.179-.36.365-.564.557L6.775 9.905A109.17 109.17 0 0 1 7.845 8.8zm-2.168 0c.19.186.371.365.545.538.115.115.236.237.362.367l.192.2c-.183.18-.361.358-.535.538-.173.179-.36.365-.564.557L4.607 9.905A109.17 109.17 0 0 1 5.677 8.8zM16.558.814a88.067 88.067 0 0 0 .839.733l-2.032 2.375h3.22a2.077 2.077 0 0 1 1.473.597c.182.18.325.393.43.635.105.242.157.495.157.759 0 .228-.073.538-.22.928h4.226v1.134h-14.29v.006a1.96 1.96 0 0 1-.71-.198 2.554 2.554 0 0 1-.641-.452c-.198.185-.41.335-.638.449-.227.114-.66.181-1.301.2v-.005H3.54a5.698 5.698 0 0 1-.172.697c-.068.213-.15.394-.247.544a2.268 2.268 0 0 1-.859.747c-.367.191-.82.287-1.36.287A4.724 4.724 0 0 1 0 10.16V9.068c.136.047.278.082.425.103.148.022.293.033.437.033.186 0 .367-.022.544-.065.177-.043.338-.111.483-.204.146-.092.27-.213.37-.36.101-.148.17-.328.21-.54.02-.28.036-.572.05-.875.013-.304.02-.62.02-.952V5.96c0-.094-.002-.179-.006-.254V3.668h1.123v2.475c0 .075 0 .153-.002.234l-.006.242c-.002.08-.005.155-.009.222h3.432c.493-.016.788-.05.885-.1a.896.896 0 0 0 .43-.487c.043-.113.065-.239.065-.376V3.68h1.112v2.198a1.007 1.007 0 0 0 .242.664.946.946 0 0 0 .556.298h8.2c.163 0 .306-.024.428-.073a.828.828 0 0 0 .3-.198.829.829 0 0 0 .174-.28.9.9 0 0 0-.002-.65.854.854 0 0 0-.48-.5 1.064 1.064 0 0 0-.42-.077h-3.208c-.16.008-.31-.007-.451-.044a1.058 1.058 0 0 1-.373-.177.846.846 0 0 1-.346-.7V4.07a1.332 1.332 0 0 1 .09-.417 2.067 2.067 0 0 1 .329-.55c.07-.084.143-.172.221-.262a2.372 2.372 0 0 0 .058-.083l.839-.969c.28-.323.559-.648.838-.975zm10.375.13v4.904c0 .185-.004.375-.012.57a4.706 4.706 0 0 1-.058.576c-.03.19-.077.37-.137.54-.06.172-.142.325-.247.459-.136-.083-.26-.156-.373-.219a22.723 22.723 0 0 1-.36-.207c.023-.126.041-.264.055-.413.013-.15.02-.313.02-.49v-.13a.805.805 0 0 0-.012-.142V.944h1.124zm22.369-.13a88.083 88.083 0 0 0 .838.733l-2.032 2.375h3.22a2.077 2.077 0 0 1 1.473.597c.183.18.326.393.43.635.106.242.158.495.158.759 0 .228-.074.538-.221.928h.765a.954.954 0 0 0 .3-.113.896.896 0 0 0 .43-.487c.043-.112.064-.237.064-.375V3.668h1.112v2.198c0 .153.027.291.082.413a.904.904 0 0 0 .512.496.95.95 0 0 0 .687 0 .904.904 0 0 0 .513-.496c.054-.122.081-.26.081-.413V3.668h1.118v2.198c0 .153.026.29.079.41a.92.92 0 0 0 .506.494c.11.043.224.067.34.07.117-.003.23-.027.341-.07a.912.912 0 0 0 .51-.494.986.986 0 0 0 .081-.41V3.668h1.112v2.221c0 .28-.055.543-.166.79-.11.245-.259.462-.445.65a2.245 2.245 0 0 1-.646.451 2.1 2.1 0 0 1-.775.195 2.077 2.077 0 0 1-.792-.186 2.615 2.615 0 0 1-.71-.47 2.13 2.13 0 0 1-.719.479 2.69 2.69 0 0 1-.771.177 2.022 2.022 0 0 1-.775-.174 2.408 2.408 0 0 1-.716-.482 2.701 2.701 0 0 1-.64.45 1.925 1.925 0 0 1-.713.206H40.65a1.96 1.96 0 0 1-.71-.198 2.554 2.554 0 0 1-.64-.452c-.198.185-.41.335-.638.45-.227.113-.66.18-1.301.2h-8.364v-1.14h8.364c.493-.016.788-.05.885-.1a.896.896 0 0 0 .43-.487c.043-.113.065-.238.065-.376V3.674h1.112v2.198a1.007 1.007 0 0 0 .241.664.946.946 0 0 0 .556.298v.007h1.06a4.007 4.007 0 0 1-.151-.511 2.07 2.07 0 0 1-.053-.44V4.772c0-.288.055-.558.163-.81a2.096 2.096 0 0 1 1.098-1.11c.25-.11.517-.166.8-.166.284 0 .55.055.801.166a2.096 2.096 0 0 1 1.26 1.92v1.116c0 .134-.018.281-.055.44-.037.16-.088.33-.154.512h5.886c.163 0 .305-.025.428-.074a.828.828 0 0 0 .3-.198.829.829 0 0 0 .174-.28.9.9 0 0 0-.003-.65.854.854 0 0 0-.48-.5 1.064 1.064 0 0 0-.42-.077h-3.207c-.16.008-.31-.007-.452-.044a1.058 1.058 0 0 1-.372-.177.846.846 0 0 1-.346-.7V4.07a1.332 1.332 0 0 1 .09-.417 2.067 2.067 0 0 1 .329-.55c.07-.084.143-.172.22-.262a2.371 2.371 0 0 0 .059-.083l.838-.969c.28-.323.56-.648.839-.975zm-5.74 2.996a1.117 1.117 0 0 0-.344.08.92.92 0 0 0-.51.496c-.052.12-.078.259-.078.416v1.07c0 .153.026.29.079.41a.92.92 0 0 0 .51.497c.112.045.226.07.343.073a.894.894 0 0 0 .343-.044.844.844 0 0 0 .518-.487c.055-.126.082-.276.082-.45V4.803c0-.173-.027-.323-.082-.449a.846.846 0 0 0-.515-.49.958.958 0 0 0-.346-.053zm-11.327.315c.19.186.37.365.544.538.173.172.358.361.554.567-.183.18-.361.358-.534.538-.174.179-.362.365-.564.557l-1.07-1.095a109.17 109.17 0 0 1 1.07-1.105zm-2.168 0c.19.186.37.365.544.538.116.115.236.237.362.367l.192.2c-.183.18-.361.358-.534.538-.174.179-.362.365-.564.557l-1.07-1.095.362-.378.168-.175c.164-.169.343-.353.54-.552zm-6.504 0c.19.186.37.365.544.538.173.172.358.361.554.567-.183.18-.361.358-.534.538-.174.179-.362.365-.564.557l-1.07-1.095a109.17 109.17 0 0 1 1.07-1.105zM48.493.194l.489.443-2.574 3.007c-.054-.17-.07-.35-.046-.543a1.577 1.577 0 0 1 .259-.677c.064-.096.135-.19.212-.283l.239-.287 1.42-1.66zm-32.744 0l.489.443-2.574 3.007c-.054-.17-.07-.35-.046-.543a1.577 1.577 0 0 1 .259-.677c.064-.096.135-.19.212-.283l.24-.287 1.42-1.66zM58.25.825c.19.186.371.365.544.538.116.115.236.237.362.367l.193.2c-.184.18-.362.358-.535.538-.173.179-.361.365-.564.557L57.18 1.93a109.178 109.178 0 0 1 1.07-1.105zm-2.168 0c.19.186.371.365.544.538.116.115.236.237.362.367l.193.2c-.184.18-.362.358-.535.538-.173.179-.361.365-.564.557l-1.07-1.095a109.173 109.173 0 0 1 1.07-1.105zm4.336 0c.19.186.371.365.544.538.174.172.358.361.555.567-.184.18-.362.358-.535.538-.173.179-.361.365-.564.557l-1.07-1.095A109.178 109.178 0 0 1 60.42.825zm-57.182 0c.19.186.371.365.545.538.173.172.358.361.554.567-.183.18-.361.358-.535.538-.173.179-.36.365-.564.557L2.168 1.93A109.168 109.168 0 0 1 3.238.825zM43.617 0c.19.186.37.365.544.538.173.172.358.361.554.567-.183.18-.36.358-.534.538-.174.179-.362.365-.564.557l-1.07-1.095A109.174 109.174 0 0 1 43.617 0zM96.191 8.8c.19.186.371.365.545.538.115.115.236.237.362.367l.192.2c-.183.18-.361.358-.535.538-.173.179-.361.365-.564.557l-1.069-1.095a109.179 109.179 0 0 1 1.07-1.105zm-2.168 0c.19.186.371.365.545.538.115.115.236.237.362.367l.192.2c-.183.18-.361.358-.535.538-.173.179-.361.365-.564.557l-1.07-1.095.363-.378.168-.175c.163-.169.343-.353.54-.552zm-2.98 0l.544.538c.173.172.358.361.554.567-.183.18-.361.358-.535.538-.173.179-.361.365-.564.557l-1.07-1.095.363-.378.168-.175c.163-.169.343-.353.54-.552zm-2.169 0c.19.186.371.365.545.538.115.115.236.237.362.367l.192.2c-.183.18-.361.358-.535.538-.173.179-.361.365-.564.557l-1.07-1.095a109.174 109.174 0 0 1 1.07-1.105zm9.485 0c.19.186.371.365.545.538.173.172.358.361.554.567-.183.18-.361.358-.535.538-.173.179-.361.365-.564.557L97.29 9.905A109.179 109.179 0 0 1 98.36 8.8zM65.44 3.154c.201.173.404.366.608.579.203.213.389.437.556.673.167.237.304.481.413.733.109.252.17.502.186.75 0 .28-.055.546-.166.798a2.16 2.16 0 0 1-1.103 1.12 1.9 1.9 0 0 1-.792.168h-1.455V6.841h1.432c.163 0 .306-.029.428-.086a.907.907 0 0 0 .483-.532 1.16 1.16 0 0 0 .067-.345 1.27 1.27 0 0 0-.163-.444 3.19 3.19 0 0 0-.335-.475 5.948 5.948 0 0 0-.448-.476c-.165-.157-.33-.307-.498-.449l.786-.88zM68.714.859v4.922a1.007 1.007 0 0 0 .241.665.953.953 0 0 0 .51.29h.516l-.006-2.062c0-.288.054-.557.163-.81a2.096 2.096 0 0 1 1.098-1.11 1.964 1.964 0 0 1 1.842.139c.155.096.298.212.428.348.13.136.244.287.34.452h.996c.284 0 .55.055.798.166a2.106 2.106 0 0 1 1.258 1.926v.95h.879a.946.946 0 0 0 .559-.297.896.896 0 0 0 .174-.29c.043-.112.064-.237.064-.375V3.575h1.112v2.198a1.007 1.007 0 0 0 .242.665.946.946 0 0 0 .556.298h.003a.946.946 0 0 0 .556-.298.97.97 0 0 0 .241-.665V3.575h1.113v2.198c0 .153.027.291.081.413a.904.904 0 0 0 .512.496.95.95 0 0 0 .685 0 .912.912 0 0 0 .509-.496c.054-.122.081-.26.081-.413V3.575h1.124v2.198c0 .153.026.29.079.41a.92.92 0 0 0 .506.494c.111.043.225.067.341.07.116-.003.23-.027.34-.07a.912.912 0 0 0 .51-.494.986.986 0 0 0 .082-.41V3.575h1.112v2.198a1.007 1.007 0 0 0 .241.665.91.91 0 0 0 .55.298h1.364c.493-.016.788-.05.885-.1a.896.896 0 0 0 .43-.487c.043-.113.065-.238.065-.376V3.575h1.112v2.198a1.007 1.007 0 0 0 .241.665.946.946 0 0 0 .556.298h2.944c.9.024 1.4-.05 1.496-.1a.895.895 0 0 0 .428-.488c.045-.112.067-.237.067-.375V3.575h1.112v2.221c0 .276-.05.535-.148.777a2.09 2.09 0 0 1-1.016 1.099c-.233.117-.88.23-1.939.21h-2.943v-.006a1.96 1.96 0 0 1-.71-.198 2.554 2.554 0 0 1-.641-.452c-.198.185-.41.335-.638.45-.227.114-.66.18-1.301.2H89.15a1.934 1.934 0 0 1-.707-.198 2.575 2.575 0 0 1-.638-.452c-.217.201-.45.359-.701.473-.25.114-.51.175-.777.183-.268 0-.53-.059-.786-.177a2.744 2.744 0 0 1-.717-.485c-.232.22-.474.381-.724.482-.25.1-.508.16-.772.18a2 2 0 0 1-.771-.174 2.497 2.497 0 0 1-.72-.482c-.197.185-.41.335-.637.45a1.91 1.91 0 0 1-.716.2 1.96 1.96 0 0 1-.71-.198 2.554 2.554 0 0 1-.64-.452c-.199.185-.411.335-.638.45a1.917 1.917 0 0 1-.72.2h-8.265v.008a1.969 1.969 0 0 1-.748-.204 2.103 2.103 0 0 1-1.162-1.875V.859h1.113zm3.316 3.127a1.117 1.117 0 0 0-.343.08.945.945 0 0 0-.594.912v2.05h.943c.116 0 .23-.017.343-.053a.783.783 0 0 0 .3-.174.907.907 0 0 0 .213-.307c.054-.124.081-.273.081-.446v-1.07c0-.173-.027-.323-.081-.449a.846.846 0 0 0-.515-.49.958.958 0 0 0-.347-.053zm2.783 1.117h-.716v.963c0 .133-.018.28-.055.44-.037.16-.089.33-.155.51h1.899V6.06c0-.118-.022-.236-.065-.352a.892.892 0 0 0-.189-.307.968.968 0 0 0-.719-.298zm2.95-4.278l.544.538c.173.172.358.361.554.567-.183.18-.362.358-.535.538-.173.179-.361.365-.564.557l-1.07-1.095a109.173 109.173 0 0 1 1.07-1.105zm7.045 0c.19.186.371.365.545.538.115.115.236.237.361.367l.193.2c-.183.18-.361.358-.535.538-.173.179-.361.365-.564.557L83.74 1.93A109.178 109.178 0 0 1 84.81.825zm-2.168 0c.19.186.371.365.545.538.115.115.236.237.361.367l.193.2c-.183.18-.361.358-.535.538-.173.179-.361.365-.564.557l-1.07-1.095a109.178 109.178 0 0 1 1.07-1.105zm4.336 0c.19.186.371.365.545.538.173.172.358.361.554.567-.183.18-.361.358-.535.538-.173.179-.361.365-.564.557l-1.07-1.095a109.173 109.173 0 0 1 1.07-1.105z"/>
    </g>
</svg>