<svg width="530.9" height="530.9" xmlns="http://www.w3.org/2000/svg">
 <g>
  <title>Layer 1</title>
  <path d="m348,527.8l-297.5,-90.9c-37.6,-11.5 -58.8,-51.3 -47.3,-89l90.8,-297.4c11.5,-37.6 51.3,-58.8 89,-47.3l297.5,90.8c37.6,11.5 58.8,51.3 47.3,89l-90.9,297.5c-11.5,37.6 -51.3,58.8 -88.9,47.3z" id="svg_1" fill="#a1a3a8"/>
  <circle class="st0" cx="265.5" cy="265.5" r="226.8" fill="#a1a3a8" stroke="#fff" stroke-width="25" stroke-miterlimit="10" id="svg_2"/>
  <circle class="st1" cx="265.5" cy="265.5" r="28.4" fill="#fcfcfc" id="svg_3"/>
  <path class="st1" d="m182.4,216.6c-34.3,-8.2 -55.4,-42.6 -47.3,-76.8c8.2,-34.3 42.6,-55.4 76.8,-47.3c34.3,8.2 55.4,42.6 47.3,76.8c-8.1,34.2 -42.5,55.4 -76.8,47.3zm179.3,42.6c-34.3,-8.2 -55.4,-42.6 -47.3,-76.8c8.2,-34.3 42.6,-55.4 76.8,-47.3c34.3,8.2 55.4,42.6 47.3,76.8c-8.2,34.3 -42.6,55.5 -76.8,47.3zm-222,136.6c-34.3,-8.2 -55.4,-42.6 -47.3,-76.8c8.2,-34.3 42.6,-55.4 76.8,-47.3c34.3,8.2 55.4,42.6 47.3,76.8c-8.1,34.3 -42.5,55.5 -76.8,47.3zm179.3,42.7c-34.3,-8.2 -55.4,-42.6 -47.3,-76.8c8.2,-34.3 42.6,-55.4 76.8,-47.3c34.3,8.2 55.4,42.6 47.3,76.8c-8.1,34.3 -42.5,55.5 -76.8,47.3z" fill="#fcfcfc" id="svg_4"/>
 </g>

</svg>